HIERARCHY
ROOT Hips
{
    OFFSET 0.000000 97.120003 0.000000
    CHANNELS 6 Xposition Yposition Zposition Yrotation Xrotation Zrotation
    JOINT RightUpLeg
    {
        OFFSET -11.000000 -0.000000 0.000000
        CHANNELS 3 Yrotation Xrotation Zrotation
        JOINT RightLeg
        {
            OFFSET 0.000000 -45.062000 0.000000
            CHANNELS 3 Yrotation Xrotation Zrotation
            JOINT RightFoot
            {
                OFFSET 0.000000 -42.057999 0.000000
                CHANNELS 3 Yrotation Xrotation Zrotation
                End Site
                {
                    OFFSET 0.000000 -10.000000 15.120000
                }
            }
        }
    }
    JOINT LeftUpLeg
    {
        OFFSET 11.000000 -0.000000 0.000000
        CHANNELS 3 Yrotation Xrotation Zrotation
        JOINT LeftLeg
        {
            OFFSET 0.000000 -45.062000 0.000000
            CHANNELS 3 Yrotation Xrotation Zrotation
            JOINT LeftFoot
            {
                OFFSET 0.000000 -42.057999 0.000000
                CHANNELS 3 Yrotation Xrotation Zrotation
                End Site
                {
                    OFFSET 0.000000 -10.000000 15.120000
                }
            }
        }
    }
    JOINT Spine
    {
        OFFSET 0.000000 8.120000 0.000000
        CHANNELS 3 Yrotation Xrotation Zrotation
        JOINT Spine1
        {
            OFFSET 0.000000 17.980000 0.000000
            CHANNELS 3 Yrotation Xrotation Zrotation
            JOINT Spine2
            {
                OFFSET 0.000000 12.760000 0.000000
                CHANNELS 3 Yrotation Xrotation Zrotation
                JOINT Neck
                {
                    OFFSET 0.000000 19.139999 0.000000
                    CHANNELS 3 Yrotation Xrotation Zrotation
                    JOINT Neck1
                    {
                        OFFSET 0.000000 4.250000 0.000000
                        CHANNELS 3 Yrotation Xrotation Zrotation
                        JOINT Head
                        {
                            OFFSET 0.000000 4.250000 0.000000
                            CHANNELS 3 Yrotation Xrotation Zrotation
                            End Site
                            {
                                OFFSET 0.000000 19.120001 0.000000
                            }
                        }
                    }
                }
                JOINT RightShoulder
                {
                    OFFSET -2.900000 13.340000 0.000000
                    CHANNELS 3 Yrotation Xrotation Zrotation
                    JOINT RightArm
                    {
                        OFFSET -16.100000 0.000000 0.000000
                        CHANNELS 3 Yrotation Xrotation Zrotation
                        JOINT RightForeArm
                        {
                            OFFSET -28.000000 0.000000 0.000000
                            CHANNELS 3 Yrotation Xrotation Zrotation
                            JOINT RightHand
                            {
                                OFFSET -26.000000 0.000000 0.000000
                                CHANNELS 3 Yrotation Xrotation Zrotation
                                JOINT RightHandThumb1
                                {
                                    OFFSET -1.937000 -0.484000 2.518000
                                    CHANNELS 3 Yrotation Xrotation Zrotation
                                    JOINT RightHandThumb2
                                    {
                                        OFFSET -3.872000 0.000000 0.000000
                                        CHANNELS 3 Yrotation Xrotation Zrotation
                                        JOINT RightHandThumb3
                                        {
                                            OFFSET -2.690000 0.000000 0.000000
                                            CHANNELS 3 Yrotation Xrotation Zrotation
                                            End Site
                                            {
                                                OFFSET -2.537000 0.000000 0.000000
                                            }
                                        }
                                    }
                                }
                                JOINT RightInHandIndex
                                {
                                    OFFSET -3.389000 0.535000 2.080000
                                    CHANNELS 3 Yrotation Xrotation Zrotation
                                    JOINT RightHandIndex1
                                    {
                                        OFFSET -5.485000 -0.096000 1.051000
                                        CHANNELS 3 Yrotation Xrotation Zrotation
                                        JOINT RightHandIndex2
                                        {
                                            OFFSET -3.806000 0.000000 0.000000
                                            CHANNELS 3 Yrotation Xrotation Zrotation
                                            JOINT RightHandIndex3
                                            {
                                                OFFSET -2.158000 0.000000 0.000000
                                                CHANNELS 3 Yrotation Xrotation Zrotation
                                                End Site
                                                {
                                                    OFFSET -1.898000 0.000000 0.000000
                                                }
                                            }
                                        }
                                    }
                                }
                                JOINT RightInHandMiddle
                                {
                                    OFFSET -3.556000 0.544000 0.796000
                                    CHANNELS 3 Yrotation Xrotation Zrotation
                                    JOINT RightHandMiddle1
                                    {
                                        OFFSET -5.441000 -0.088000 0.330000
                                        CHANNELS 3 Yrotation Xrotation Zrotation
                                        JOINT RightHandMiddle2
                                        {
                                            OFFSET -4.153000 0.000000 0.000000
                                            CHANNELS 3 Yrotation Xrotation Zrotation
                                            JOINT RightHandMiddle3
                                            {
                                                OFFSET -2.603000 0.000000 0.000000
                                                CHANNELS 3 Yrotation Xrotation Zrotation
                                                End Site
                                                {
                                                    OFFSET -2.076000 0.000000 0.000000
                                                }
                                            }
                                        }
                                    }
                                }
                                JOINT RightInHandRing
                                {
                                    OFFSET -3.539000 0.566000 -0.136000
                                    CHANNELS 3 Yrotation Xrotation Zrotation
                                    JOINT RightHandRing1
                                    {
                                        OFFSET -4.873000 -0.023000 -0.504000
                                        CHANNELS 3 Yrotation Xrotation Zrotation
                                        JOINT RightHandRing2
                                        {
                                            OFFSET -3.619000 0.000000 0.000000
                                            CHANNELS 3 Yrotation Xrotation Zrotation
                                            JOINT RightHandRing3
                                            {
                                                OFFSET -2.511000 0.000000 0.000000
                                                CHANNELS 3 Yrotation Xrotation Zrotation
                                                End Site
                                                {
                                                    OFFSET -1.952000 0.000000 0.000000
                                                }
                                            }
                                        }
                                    }
                                }
                                JOINT RightInHandPinky
                                {
                                    OFFSET -3.324000 0.494000 -1.264000
                                    CHANNELS 3 Yrotation Xrotation Zrotation
                                    JOINT RightHandPinky1
                                    {
                                        OFFSET -4.354000 -0.023000 -1.147000
                                        CHANNELS 3 Yrotation Xrotation Zrotation
                                        JOINT RightHandPinky2
                                        {
                                            OFFSET -2.898000 0.000000 0.000000
                                            CHANNELS 3 Yrotation Xrotation Zrotation
                                            JOINT RightHandPinky3
                                            {
                                                OFFSET -1.831000 0.000000 0.000000
                                                CHANNELS 3 Yrotation Xrotation Zrotation
                                                End Site
                                                {
                                                    OFFSET -1.730000 0.000000 0.000000
                                                }
                                            }
                                        }
                                    }
                                }
                            }
                        }
                    }
                }
                JOINT LeftShoulder
                {
                    OFFSET 2.900000 13.340000 0.000000
                    CHANNELS 3 Yrotation Xrotation Zrotation
                    JOINT LeftArm
                    {
                        OFFSET 16.100000 0.000000 0.000000
                        CHANNELS 3 Yrotation Xrotation Zrotation
                        JOINT LeftForeArm
                        {
                            OFFSET 28.000000 0.000000 0.000000
                            CHANNELS 3 Yrotation Xrotation Zrotation
                            JOINT LeftHand
                            {
                                OFFSET 26.000000 0.000000 0.000000
                                CHANNELS 3 Yrotation Xrotation Zrotation
                                JOINT LeftHandThumb1
                                {
                                    OFFSET 1.937000 -0.484000 2.518000
                                    CHANNELS 3 Yrotation Xrotation Zrotation
                                    JOINT LeftHandThumb2
                                    {
                                        OFFSET 3.872000 0.000000 0.000000
                                        CHANNELS 3 Yrotation Xrotation Zrotation
                                        JOINT LeftHandThumb3
                                        {
                                            OFFSET 2.690000 0.000000 0.000000
                                            CHANNELS 3 Yrotation Xrotation Zrotation
                                            End Site
                                            {
                                                OFFSET 2.537000 0.000000 0.000000
                                            }
                                        }
                                    }
                                }
                                JOINT LeftInHandIndex
                                {
                                    OFFSET 3.389000 0.535000 2.080000
                                    CHANNELS 3 Yrotation Xrotation Zrotation
                                    JOINT LeftHandIndex1
                                    {
                                        OFFSET 5.485000 -0.096000 1.051000
                                        CHANNELS 3 Yrotation Xrotation Zrotation
                                        JOINT LeftHandIndex2
                                        {
                                            OFFSET 3.806000 0.000000 0.000000
                                            CHANNELS 3 Yrotation Xrotation Zrotation
                                            JOINT LeftHandIndex3
                                            {
                                                OFFSET 2.158000 0.000000 0.000000
                                                CHANNELS 3 Yrotation Xrotation Zrotation
                                                End Site
                                                {
                                                    OFFSET 1.898000 0.000000 0.000000
                                                }
                                            }
                                        }
                                    }
                                }
                                JOINT LeftInHandMiddle
                                {
                                    OFFSET 3.556000 0.544000 0.796000
                                    CHANNELS 3 Yrotation Xrotation Zrotation
                                    JOINT LeftHandMiddle1
                                    {
                                        OFFSET 5.441000 -0.088000 0.330000
                                        CHANNELS 3 Yrotation Xrotation Zrotation
                                        JOINT LeftHandMiddle2
                                        {
                                            OFFSET 4.153000 0.000000 0.000000
                                            CHANNELS 3 Yrotation Xrotation Zrotation
                                            JOINT LeftHandMiddle3
                                            {
                                                OFFSET 2.603000 0.000000 0.000000
                                                CHANNELS 3 Yrotation Xrotation Zrotation
                                                End Site
                                                {
                                                    OFFSET 2.076000 0.000000 0.000000
                                                }
                                            }
                                        }
                                    }
                                }
                                JOINT LeftInHandRing
                                {
                                    OFFSET 3.539000 0.566000 -0.136000
                                    CHANNELS 3 Yrotation Xrotation Zrotation
                                    JOINT LeftHandRing1
                                    {
                                        OFFSET 4.873000 -0.023000 -0.504000
                                        CHANNELS 3 Yrotation Xrotation Zrotation
                                        JOINT LeftHandRing2
                                        {
                                            OFFSET 3.619000 0.000000 0.000000
                                            CHANNELS 3 Yrotation Xrotation Zrotation
                                            JOINT LeftHandRing3
                                            {
                                                OFFSET 2.511000 0.000000 0.000000
                                                CHANNELS 3 Yrotation Xrotation Zrotation
                                                End Site
                                                {
                                                    OFFSET 1.952000 0.000000 0.000000
                                                }
                                            }
                                        }
                                    }
                                }
                                JOINT LeftInHandPinky
                                {
                                    OFFSET 3.324000 0.494000 -1.264000
                                    CHANNELS 3 Yrotation Xrotation Zrotation
                                    JOINT LeftHandPinky1
                                    {
                                        OFFSET 4.354000 -0.023000 -1.147000
                                        CHANNELS 3 Yrotation Xrotation Zrotation
                                        JOINT LeftHandPinky2
                                        {
                                            OFFSET 2.898000 0.000000 0.000000
                                            CHANNELS 3 Yrotation Xrotation Zrotation
                                            JOINT LeftHandPinky3
                                            {
                                                OFFSET 1.831000 0.000000 0.000000
                                                CHANNELS 3 Yrotation Xrotation Zrotation
                                                End Site
                                                {
                                                    OFFSET 1.730000 0.000000 0.000000
                                                }
                                            }
                                        }
                                    }
                                }
                            }
                        }
                    }
                }
            }
        }
    }
}
MOTION
Frames: 4
Frame Time: 0.011111
0.000000 97.119995 0.000000 0.000000 0.000000 0.000000 0.000000 0.000000 0.000000 0.000000 0.000000 0.000000 0.000000 0.000000 0.000000 0.000000 0.000000 0.000000 0.000000 0.000000 0.000000 0.000000 0.000000 0.000000 0.000000 0.000000 0.000000 0.000000 0.000000 0.000000 0.000000 0.000000 0.000000 0.000000 0.000000 0.000000 0.000000 0.000000 0.000000 0.000000 0.000000 0.000000 0.000000 0.000000 0.000000 0.000000 0.000000 0.000000 0.000000 0.000000 0.000000 0.000000 0.000000 0.000000 0.000000 0.000000 0.000000 0.000000 0.000000 0.000000 0.000000 0.000000 0.000000 0.000000 0.000000 0.000000 0.000000 0.000000 0.000000 0.000000 0.000000 0.000000 0.000000 0.000000 0.000000 0.000000 0.000000 0.000000 0.000000 0.000000 0.000000 0.000000 0.000000 0.000000 0.000000 0.000000 0.000000 0.000000 0.000000 0.000000 0.000000 0.000000 0.000000 0.000000 0.000000 0.000000 0.000000 0.000000 0.000000 0.000000 0.000000 0.000000 0.000000 0.000000 0.000000 0.000000 0.000000 0.000000 0.000000 0.000000 0.000000 0.000000 0.000000 0.000000 0.000000 0.000000 0.000000 0.000000 0.000000 0.000000 0.000000 0.000000 0.000000 0.000000 0.000000 0.000000 0.000000 0.000000 0.000000 0.000000 0.000000 0.000000 0.000000 0.000000 0.000000 0.000000 0.000000 0.000000 0.000000 0.000000 0.000000 0.000000 0.000000 0.000000 0.000000 0.000000 0.000000 0.000000 0.000000 0.000000 0.000000 0.000000 0.000000 0.000000 0.000000 0.000000 0.000000 0.000000 0.000000 0.000000 0.000000 0.000000 0.000000 0.000000 0.000000 0.000000 0.000000 0.000000 0.000000 0.000000 0.000000 0.000000 0.000000 0.000000 0.000000 0.000000 0.000000 0.000000 0.000000 0.000000
0.538744 97.116577 -0.447348 1.431304 -3.159338 -0.243912 177.069809 175.244110 -179.613388 170.783081 178.947479 179.713318 179.245590 -174.989731 -179.126663 177.801575 175.077179 179.229324 0.903707 0.005058 -0.670505 2.514123 -2.918911 1.888499 179.412628 176.300125 -179.559448 179.412766 176.367905 -179.239639 177.169296 177.301697 -179.182739 180.000000 -177.652695 178.957443 180.000000 -177.261444 178.920212 174.553940 -177.931503 179.557037 2.073645 1.476403 -3.138672 11.163364 -5.252490 84.650642 178.583328 -178.993271 178.267685 176.592926 -178.187149 -177.799133 43.294571 48.610683 0.447356 0.000003 -0.000000 5.111670 0.000002 0.000010 3.404367 0.000000 -0.000000 0.000003 15.000006 -0.000000 27.509153 0.000001 0.000000 22.507490 0.000000 -0.000002 15.755243 0.000000 -0.000000 0.000003 0.000000 -0.000000 29.548620 180.000000 -180.000000 -150.451401 180.000000 -180.000000 -160.320618 0.000000 -0.000000 0.000003 170.000000 -179.999985 -155.141052 0.000002 0.000001 24.858959 0.000000 -0.000000 16.556068 0.000000 -0.000000 0.000003 160.000015 -180.000000 -165.364914 179.999985 -179.999985 -158.047409 0.000004 0.000001 14.620435 178.491714 -176.997269 176.629501 176.151123 -174.955582 96.877281 2.627014 -1.578712 3.356397 3.128405 -0.937730 -8.342123 136.450562 123.872299 174.552399 0.000000 0.000000 -6.100587 180.000000 179.999985 175.937027 0.000000 -0.000000 0.000000 165.000015 180.000000 159.057007 0.000001 -0.000002 -17.135204 180.000000 180.000000 168.005356 0.000000 -0.000000 0.000000 0.000000 0.000001 -23.780376 0.000000 0.000000 -23.780386 0.000000 0.000000 -15.837730 0.000000 -0.000000 0.000000 10.000007 0.000000 -24.293753 180.000000 -179.999985 155.706284 0.000001 0.000002 -16.179623 0.000000 -0.000000 0.000000 19.999989 -0.000000 -21.702618 180.000000 180.000000 147.446060 0.000004 -0.000008 -21.680910
0.539233 97.105682 -0.447197 1.437584 -3.162968 -0.246034 177.069534 175.240280 -179.611191 170.777924 178.944916 179.711914 179.241638 -174.984726 -179.124176 177.796646 175.073608 179.232712 0.897791 0.005853 -0.673599 2.520108 -2.919470 1.890095 179.413544 176.297058 -179.559402 179.412872 176.364914 -179.240631 177.169815 177.299652 -179.184158 0.000001 -2.332147 -1.047959 180.000000 -177.279160 178.914627 174.541077 -177.944122 179.553040 2.068479 1.455211 -3.155908 11.182738 -5.231699 84.681587 178.584763 -178.968658 178.266357 176.593872 -178.189423 -177.797577 43.297462 48.615253 0.450341 0.000000 0.000002 5.110825 0.000014 -0.000002 3.403824 0.000000 -0.000000 0.000003 15.000000 -0.000000 27.499792 0.000000 -0.000000 22.499830 0.000001 0.000001 15.749886 0.000000 -0.000000 0.000003 0.000000 -0.000000 29.542597 180.000000 -180.000000 -150.457413 0.000001 -0.000000 19.675350 0.000000 -0.000000 0.000003 170.000000 179.999985 -155.142899 0.000002 -0.000000 24.857105 0.000002 0.000001 16.554836 0.000000 -0.000000 0.000003 160.000015 -180.000000 -165.365509 180.000000 -179.999985 -158.048248 180.000000 180.000000 -165.380112 178.480896 -176.971756 176.664413 176.180801 -174.965744 96.832687 2.625920 -1.574317 3.350822 3.123937 -0.921745 -8.330746 136.440292 123.879097 174.544128 179.999985 179.999985 173.899200 0.000003 0.000004 -4.063137 0.000000 0.000000 0.000000 165.000015 -180.000000 159.051270 180.000000 -180.000000 162.860107 0.000001 -0.000001 -11.997916 0.000000 0.000000 0.000000 0.000000 0.000000 -23.781025 180.000000 180.000000 156.218964 180.000000 -180.000000 164.161835 0.000000 0.000000 0.000000 10.000005 0.000002 -24.288294 180.000000 180.000000 155.711731 180.000000 -179.999985 163.824020 0.000000 0.000000 0.000000 19.999985 -0.000001 -21.707846 180.000000 179.999985 147.438187 180.000000 179.999985 158.313858
0.541261 97.102867 -0.447459 1.444451 -3.163743 -0.247012 177.069458 175.239502 -179.611679 170.772003 178.943344 179.711548 179.239075 -174.983353 -179.121262 177.788239 175.072601 179.231796 0.895458 0.004570 -0.673533 2.525559 -2.917142 1.893049 179.414413 176.293594 -179.559174 179.412949 176.361542 -179.241592 177.170258 177.297241 -179.185516 180.000000 -177.680710 178.949020 0.000001 -2.705828 -1.088526 174.529297 -177.954910 179.550598 2.067013 1.433308 -3.172577 11.201144 -5.211882 84.707138 178.588943 -178.943481 178.268951 176.600876 -178.211456 -177.814636 43.288086 48.607685 0.446614 0.000014 0.000006 5.114999 180.000000 -179.999985 -176.593414 0.000000 -0.000000 0.000000 14.999999 -0.000003 27.501118 0.000001 0.000000 22.500896 0.000001 -0.000003 15.750628 0.000000 -0.000000 0.000000 0.000002 0.000001 29.540743 0.000001 0.000002 29.540730 0.000000 0.000001 19.674120 0.000000 -0.000000 0.000000 170.000000 -180.000000 -155.131363 180.000000 180.000000 -155.131378 0.000002 0.000001 16.562502 0.000000 -0.000000 0.000000 160.000015 179.999985 -165.369675 180.000000 -179.999985 -158.054535 0.000002 -0.000000 14.615693 178.479736 -176.943283 176.683517 176.186020 -174.979904 96.802986 2.622507 -1.578653 3.349102 3.125964 -0.907640 -8.317641 136.446564 123.884361 174.543930 0.000018 -0.000016 -6.104848 179.999985 179.999985 175.934189 180.000000 180.000000 -180.000000 165.000000 -179.999985 159.048050 180.000000 180.000000 162.857498 0.000002 -0.000003 -11.999760 180.000000 180.000000 -180.000000 180.000000 -180.000000 156.213318 0.000001 0.000000 -23.786640 180.000000 180.000000 164.158081 180.000000 180.000000 -180.000000 10.000002 -0.000000 -24.288774 0.000002 0.000000 -24.288769 180.000000 180.000000 163.823654 180.000000 180.000000 -180.000000 20.000000 0.000005 -21.708881 0.000003 -0.000003 -32.563267 0.000002 0.000000 -21.687157
